<?xml version="1.0" encoding="UTF-8"?>
<svg version="1.1" xmlns="http://www.w3.org/2000/svg" width="438" height="432">
<path d="M0 0 C0.495 0.99 0.495 0.99 1 2 C2.546875 1.7215625 2.546875 1.7215625 4.125 1.4375 C10.41739387 0.61971596 16.71190966 1.42594681 23 2 C23 1.34 23 0.68 23 0 C23.99 0.495 23.99 0.495 25 1 C27.98591862 1.04706867 30.95278997 1.04323605 33.9375 1 C41.01791648 0.94129119 47.96366133 1.11452817 55 2 C55 1.34 55 0.68 55 0 C55.63164062 0.165 56.26328125 0.33 56.9140625 0.5 C61.08952844 1.17653119 65.15409184 1.06064065 69.375 1 C77.96945079 0.93061361 86.4362943 1.27338255 95 2 C95 1.34 95 0.68 95 0 C95.66 0 96.32 0 97 0 C97 0.66 97 1.32 97 2 C97.99 1.835 98.98 1.67 100 1.5 C106.46858266 0.58709519 112.57568186 0.92928031 119 2 C119 1.34 119 0.68 119 0 C119.99 0.495 119.99 0.495 121 1 C123.24236764 1.07393843 125.48698005 1.0834278 127.73046875 1.0625 C128.39911453 1.05871338 129.06776031 1.05492676 129.75666809 1.05102539 C132.61690806 1.03470721 135.47700503 1.00677815 138.3371582 0.97949219 C140.42658815 0.96125437 142.51599376 0.94924889 144.60546875 0.9375 C146.47948364 0.92009766 146.47948364 0.92009766 148.39135742 0.90234375 C152.00088013 1.00002382 155.43913553 1.41849421 159 2 C159 1.34 159 0.68 159 0 C159.99 0.495 159.99 0.495 161 1 C165.14503661 1.24787017 165.14503661 1.24787017 169 0 C169 0.66 169 1.32 169 2 C173.62 2 178.24 2 183 2 C183.33 1.34 183.66 0.68 184 0 C184 0.66 184 1.32 184 2 C185.10057739 1.83734146 186.20115479 1.67468292 187.33508301 1.50709534 C192.44219906 0.87287445 197.49846637 0.86727246 202.63867188 0.88647461 C204.19124191 0.88625557 204.19124191 0.88625557 205.775177 0.8860321 C209.1730565 0.88672496 212.57088016 0.8944879 215.96875 0.90234375 C218.333862 0.90421016 220.69897439 0.90563301 223.06408691 0.90663147 C229.27169879 0.91043911 235.47928706 0.92025437 241.68688965 0.93133545 C248.02823568 0.94158733 254.36958556 0.94613717 260.7109375 0.95117188 C273.14063534 0.96187826 285.5703157 0.97893355 298 1 C298 1.66 298 2.32 298 3 C300.97 3 303.94 3 307 3 C307 3.66 307 4.32 307 5 C307.928125 5.04125 308.85625 5.0825 309.8125 5.125 C323.00605515 7.0667934 335.16234602 18.9109249 343 29 C355.10143185 45.59297985 354.7300257 63.15925575 354.62430525 82.8025775 C354.60874643 86.72078637 354.6223136 90.63891613 354.63204956 94.55712891 C354.64651044 102.21304967 354.63440984 109.86870349 354.61293632 117.52459887 C354.588824 126.4515914 354.59064686 135.3785241 354.59324223 144.30554196 C354.59692505 160.23727845 354.57616816 176.1688898 354.54199219 192.10058594 C354.50888327 207.54072225 354.49473854 222.98072734 354.50097656 238.42089844 C354.50774749 255.26277659 354.5052621 272.10459994 354.48561716 288.94647002 C354.48405793 290.2834216 354.48405793 290.2834216 354.4824672 291.6473823 C354.48037642 293.43719641 354.47826544 295.2270105 354.47613403 297.01682456 C354.46925331 303.23200806 354.46856661 309.44717463 354.47001648 315.66236115 C354.47145924 323.23857327 354.46170918 330.81467877 354.43807012 338.39085558 C354.42624822 342.25252437 354.41905956 346.11404492 354.42490768 349.9757309 C354.43106954 354.16856264 354.4138492 358.36098076 354.39440918 362.55377197 C354.39973711 363.76438427 354.40506503 364.97499657 354.41055441 366.22229409 C354.28393568 382.08073525 348.84814945 396.7748877 337.69921875 408.23046875 C335.81058628 410.09323367 335.81058628 410.09323367 334 413 C332.34228225 413.99463065 330.67825206 414.98106576 328.9765625 415.8984375 C326.99020403 417.00545941 325.13784165 418.23367001 323.25 419.5 C315.27904515 424.4722847 306.89239254 426.42986207 297.65234375 427.60546875 C295.03111607 427.85496272 295.03111607 427.85496272 293 429 C292.030625 428.835 291.06125 428.67 290.0625 428.5 C286.97047565 427.75153105 286.97047565 427.75153105 284 429 C282.33333333 428.66666667 280.66666667 428.33333333 279 428 C278.01 428.33 277.02 428.66 276 429 C273.99890722 428.67329097 271.99883869 428.34022786 270 428 C269.34 428.33 268.68 428.66 268 429 C267.236875 428.835 266.47375 428.67 265.6875 428.5 C262.76169663 427.95566449 260.87810255 428.39408367 258 429 C257.01 428.67 256.02 428.34 255 428 C254.01 428.33 253.02 428.66 252 429 C250.33178677 428.67449498 248.66500443 428.34153937 247 428 C246.34 428.33 245.68 428.66 245 429 C242.6505947 428.39239518 240.31470912 427.72870472 238 427 C237.67 427.66 237.34 428.32 237 429 C236.113125 428.814375 235.22625 428.62875 234.3125 428.4375 C231.14821189 428.01957516 229.05160358 428.19222258 226 429 C225.67 428.34 225.34 427.68 225 427 C224.2575 427.350625 223.515 427.70125 222.75 428.0625 C219.82879218 429.0583663 218.81513699 429.06781058 216 428 C215.34 427.67 214.68 427.34 214 427 C214 427.66 214 428.32 214 429 C212.54178519 429.02792326 211.08339757 429.04679418 209.625 429.0625 C208.81289063 429.07410156 208.00078125 429.08570313 207.1640625 429.09765625 C204.53227059 429.0164281 202.01099147 428.79662938 199.3984375 428.50390625 C193.59295237 427.89431406 187.8327903 427.85253739 182 427.875 C180.96488281 427.87113281 179.92976563 427.86726563 178.86328125 427.86328125 C177.87714844 427.86457031 176.89101563 427.86585938 175.875 427.8671875 C174.54082031 427.86887939 174.54082031 427.86887939 173.1796875 427.87060547 C170.9534776 427.85933437 170.9534776 427.85933437 169 429 C169 428.34 169 427.68 169 427 C166.36 427.66 163.72 428.32 161 429 C161 428.34 161 427.68 161 427 C160.236875 427.33 159.47375 427.66 158.6875 428 C156 429 156 429 153 429 C153 428.34 153 427.68 153 427 C151.7625 427.144375 150.525 427.28875 149.25 427.4375 C145.41878236 427.85578167 141.5866191 428.2593816 137.75 428.625 C136.77546875 428.72039062 135.8009375 428.81578125 134.796875 428.9140625 C131.99804759 429.00005999 129.72149642 428.6057668 127 428 C122.14343891 427.84582346 117.78337279 428.04332544 113 429 C113 428.34 113 427.68 113 427 C110.36 427.66 107.72 428.32 105 429 C105 428.34 105 427.68 105 427 C104.06027344 427.12568359 104.06027344 427.12568359 103.1015625 427.25390625 C102.28429687 427.35574219 101.46703125 427.45757812 100.625 427.5625 C99.81289062 427.66691406 99.00078125 427.77132813 98.1640625 427.87890625 C96 428 96 428 94 427 C94 427.66 94 428.32 94 429 C93.34773437 428.9278125 92.69546875 428.855625 92.0234375 428.78125 C83.71005145 427.77177545 83.71005145 427.77177545 75.4375 428.5625 C72.61670564 429.06879642 70.7966298 428.58534112 68 428 C64.14592425 427.79555983 60.70260119 427.7657996 57 429 C56.01 428.34 55.02 427.68 54 427 C53.67 427.66 53.34 428.32 53 429 C51.948125 428.814375 50.89625 428.62875 49.8125 428.4375 C46.34670804 428.03978617 44.32426259 428.30015524 41 429 C39.32706064 428.69972883 37.66014616 428.36442233 36 428 C32.58009651 427.86320386 30.26046344 427.91317885 27 429 C25.33253222 428.67069757 23.66604338 428.33643476 22 428 C19.2595909 427.90710478 16.55147794 427.86012772 13.8125 427.875 C13.08869141 427.87113281 12.36488281 427.86726563 11.61914062 427.86328125 C7.68083498 427.79545674 7.68083498 427.79545674 4 429 C3.34 428.835 2.68 428.67 2 428.5 C-0.9409411 428.00984315 -2.94741869 428.17541858 -5.875 428.5625 C-10.51357536 429.11801801 -13.64026266 428.61120728 -18 427 C-18.33 427.66 -18.66 428.32 -19 429 C-19 428.34 -19 427.68 -19 427 C-19.69222656 427.05800781 -20.38445313 427.11601562 -21.09765625 427.17578125 C-33.72960509 427.75828218 -44.37038694 423.64467149 -54.6796875 416.58203125 C-57.36116929 414.75374821 -60.0573279 413.35203853 -63 412 C-63 411.01 -63 410.02 -63 409 C-65.31193977 406.92722641 -67.02935582 405.99021473 -70 405 C-70 403.68 -70 402.36 -70 401 C-71.16625008 398.73477196 -71.16625008 398.73477196 -72.75 396.4375 C-77.92912214 388.1606996 -81.04737018 379.3113177 -81.2023468 369.516922 C-81.2216884 368.4126845 -81.24103001 367.308447 -81.26095772 366.17074776 C-81.27708044 364.95400305 -81.29320316 363.73725834 -81.30981445 362.48364258 C-81.3301367 361.17341063 -81.35045895 359.86317867 -81.37139702 358.51324272 C-81.42720012 354.82500756 -81.47538574 351.13670847 -81.52123427 347.44833732 C-81.55108773 345.05748644 -81.58238762 342.66665753 -81.61385536 340.27582741 C-82.24322332 291.65995212 -82.18750861 243.0385562 -82.18511117 194.41951668 C-82.18546415 183.88454429 -82.19715668 173.34960463 -82.2110464 162.81464261 C-82.22415847 152.49103738 -82.2294857 142.16744674 -82.22884732 131.84383327 C-82.22859516 125.74706047 -82.23129372 119.65032828 -82.24202538 113.55356407 C-82.25177973 107.86697833 -82.25173597 102.18047185 -82.24450874 96.49388313 C-82.24347485 94.43050392 -82.24575322 92.3671195 -82.2518692 90.30374908 C-82.28039787 80.00441612 -82.05355727 69.8037281 -81.11372375 59.54231262 C-80.99821239 58.25660151 -80.99821239 58.25660151 -80.88036746 56.94491643 C-79.30854958 41.52570985 -70.97865807 26.90734845 -59 17 C-55.76211112 14.50235216 -52.44709314 12.19910248 -49 10 C-48.38769531 9.608125 -47.77539062 9.21625 -47.14453125 8.8125 C-33.50430117 1.1041139 -15.18129046 -0.21958599 0 2 C0 1.34 0 0.68 0 0 Z " fill="#D8FD3B" transform="translate(82,1)"/>
<path d="M0 0 C5.38123651 4.22893747 7.8824953 9.35842341 10.01171875 15.74609375 C9.92554149 17.97836275 9.77249634 20.20847861 9.57421875 22.43359375 C9.47238281 23.61308594 9.37054688 24.79257813 9.265625 26.0078125 C9.18183594 26.91144531 9.09804687 27.81507812 9.01171875 28.74609375 C9.68976563 28.97941406 10.3678125 29.21273437 11.06640625 29.453125 C14.73258402 31.06254787 17.84414278 33.17383449 21.13671875 35.43359375 C22.48771318 36.34719476 23.83927846 37.2599522 25.19140625 38.171875 C26.17705566 38.83823975 26.17705566 38.83823975 27.18261719 39.51806641 C31.40141011 42.35049145 35.7113265 45.04004617 40.01171875 47.74609375 C42.15243542 49.09647378 44.29269501 50.44757603 46.43286133 51.79882812 C48.03795199 52.81219011 49.64326094 53.8252064 51.2487793 54.83789062 C55.76523377 57.68843614 60.27516247 60.54883199 64.77734375 63.421875 C66.22596802 64.34601196 66.22596802 64.34601196 67.70385742 65.28881836 C69.56154015 66.47465734 71.41852103 67.66159682 73.2746582 68.84985352 C74.99439514 69.94749989 76.71801941 71.03908371 78.44580078 72.12402344 C80.22594774 73.24936086 81.99175283 74.39758274 83.74560547 75.56347656 C84.62619629 76.13163086 85.50678711 76.69978516 86.4140625 77.28515625 C87.59536743 78.06560303 87.59536743 78.06560303 88.80053711 78.86181641 C90.99650715 80.02298087 90.99650715 80.02298087 93.19384766 78.96679688 C93.79374512 78.56396484 94.39364258 78.16113281 95.01171875 77.74609375 C101.82470707 73.41486684 107.99161658 72.65813271 116.01171875 73.74609375 C123.42698477 75.95338144 128.24664312 80.03001289 132.01171875 86.74609375 C135.12983821 93.2930731 135.13166249 101.16099379 132.94921875 108.05859375 C130.47658364 113.6985567 125.70891713 118.41284749 120.01171875 120.74609375 C119.02171875 120.74609375 118.03171875 120.74609375 117.01171875 120.74609375 C117.01171875 121.40609375 117.01171875 122.06609375 117.01171875 122.74609375 C117.66084229 122.96724854 118.30996582 123.18840332 118.97875977 123.41625977 C123.10081126 125.22361825 126.75572869 127.59761475 130.5390625 130.0234375 C131.36929428 130.55210922 132.19952606 131.08078094 133.05491638 131.62547302 C141.76290613 137.19012912 150.39650765 142.86708615 158.99780273 148.5949707 C161.62820219 150.34449915 164.26426 152.08529435 166.90039062 153.82617188 C168.58498453 154.94608962 170.26924296 156.0665122 171.953125 157.1875 C172.73627579 157.70308975 173.51942657 158.2186795 174.3263092 158.74989319 C175.04564133 159.23147385 175.76497345 159.7130545 176.50610352 160.20922852 C177.13718521 160.62825943 177.76826691 161.04729034 178.41847229 161.47901917 C180.01171875 162.74609375 180.01171875 162.74609375 182.01171875 165.74609375 C172.87320019 172.25602986 163.70530322 178.69917788 154.33984375 184.87890625 C150.81435068 187.20573168 147.31040792 189.56347976 143.80859375 191.92578125 C142.17482788 193.0245459 142.17482788 193.0245459 140.50805664 194.14550781 C138.32267475 195.61543634 136.13952078 197.08868324 133.95874023 198.56542969 C132.95915283 199.23606445 131.95956543 199.90669922 130.9296875 200.59765625 C130.03016357 201.20432129 129.13063965 201.81098633 128.20385742 202.43603516 C126.01171875 203.74609375 126.01171875 203.74609375 124.01171875 203.74609375 C124.71748047 204.59880859 124.71748047 204.59880859 125.4375 205.46875 C132.34890665 214.04003899 135.10314466 220.63477159 134.01171875 231.74609375 C132.13411138 238.10909652 128.56836336 243.34677001 123.04296875 247.07421875 C116.94249978 250.21286583 110.76090215 250.70108024 104.01171875 249.74609375 C101.73162454 248.88596065 99.78745583 247.92024349 97.73046875 246.62109375 C95.73905322 245.44363839 95.73905322 245.44363839 92.01171875 245.74609375 C90.22506411 246.61599535 90.22506411 246.61599535 88.53515625 247.9140625 C87.87378662 248.38851807 87.21241699 248.86297363 86.53100586 249.35180664 C85.82339111 249.87379639 85.11577637 250.39578613 84.38671875 250.93359375 C83.64107666 251.47169678 82.89543457 252.0097998 82.12719727 252.56420898 C79.74897633 254.28287528 77.38016158 256.01398516 75.01171875 257.74609375 C71.99343666 259.93712396 68.9713615 262.12289303 65.94921875 264.30859375 C64.82471313 265.12384521 64.82471313 265.12384521 63.67749023 265.95556641 C58.16987493 269.93914035 52.59740806 273.81692624 46.98461914 277.65039062 C41.37044292 281.48738248 35.78630254 285.36602251 30.26367188 289.33398438 C26.84535889 291.78563025 23.41702254 294.14376618 19.828125 296.33984375 C13.10505331 300.1713842 13.10505331 300.1713842 9.2890625 306.4609375 C9.34188093 309.25035298 9.34188093 309.25035298 9.75390625 312.01171875 C10.20804186 316.82830856 8.47365405 320.67523172 6.01171875 324.74609375 C0.3283309 331.55846158 -6.28139541 334.22310643 -14.92578125 335.18359375 C-21.76647318 334.85654872 -27.9553471 332.08944346 -32.92578125 327.43359375 C-35.8040842 324.20989444 -38.17402304 321.05551691 -38.98828125 316.74609375 C-38.89804688 315.72386719 -38.8078125 314.70164062 -38.71484375 313.6484375 C-38.44922855 309.5130836 -38.63256573 306.68272111 -39.98828125 302.74609375 C-44.2387607 297.97802276 -50.31864708 294.97888282 -55.74169922 291.74267578 C-61.50377782 288.19911444 -67.0520715 284.33711383 -72.63290405 280.5168457 C-75.34444797 278.66424158 -78.06459791 276.82450408 -80.78504944 274.98501587 C-86.18377845 271.33451936 -91.57429043 267.67289404 -96.93725586 263.9699707 C-98.73577027 262.72847032 -100.53952304 261.49489571 -102.34375 260.26171875 C-105.164636 258.32910839 -107.94639136 256.34614008 -110.7265625 254.35546875 C-112.35509862 253.21431536 -113.98399868 252.07368115 -115.61328125 250.93359375 C-116.3606958 250.38630615 -117.10811035 249.83901855 -117.87817383 249.27514648 C-122.13309837 246.21416589 -122.13309837 246.21416589 -127.19921875 246.296875 C-128.11960937 246.77511719 -129.04 247.25335938 -129.98828125 247.74609375 C-137.04076745 250.79173098 -143.96024281 250.7572948 -151.23828125 248.24609375 C-157.19162864 245.58225519 -161.25168936 241.21927753 -164.15234375 235.41796875 C-166.18402148 228.92419509 -166.29504924 220.53860072 -163.36328125 214.30859375 C-161.71772604 211.68481761 -159.8714633 209.35840847 -157.83984375 207.0234375 C-157.30439941 206.405896 -156.76895508 205.78835449 -156.21728516 205.15209961 C-155.60892822 204.45612671 -155.60892822 204.45612671 -154.98828125 203.74609375 C-155.99761719 203.07707031 -157.00695312 202.40804687 -158.046875 201.71875 C-168.39732409 194.84447106 -178.69066473 187.88942346 -188.95483398 180.88696289 C-189.95329346 180.20625732 -190.95175293 179.52555176 -191.98046875 178.82421875 C-192.95854492 178.15455078 -193.93662109 177.48488281 -194.94433594 176.79492188 C-197.08759829 175.35232822 -199.23560219 173.94178086 -201.41503906 172.55664062 C-202.51428711 171.85087891 -203.61353516 171.14511719 -204.74609375 170.41796875 C-205.75043457 169.7847168 -206.75477539 169.15146484 -207.78955078 168.49902344 C-208.87792236 167.63132324 -208.87792236 167.63132324 -209.98828125 166.74609375 C-209.98828125 165.75609375 -209.98828125 164.76609375 -209.98828125 163.74609375 C-207.86163604 161.92519198 -205.77224269 160.32127776 -203.48828125 158.71875 C-202.81337646 158.23527603 -202.13847168 157.75180206 -201.44311523 157.25367737 C-194.0917522 152.0288359 -186.55492927 147.08874922 -178.98828125 142.18359375 C-176.96873249 140.86903247 -174.9499916 139.55323824 -172.93139648 138.23721313 C-171.60569768 137.37294708 -170.27969377 136.50914885 -168.95336914 135.64584351 C-161.92808401 131.06797521 -154.95556313 126.41159492 -147.98828125 121.74609375 C-148.53976837 121.48013901 -149.09125549 121.21418427 -149.65945435 120.94017029 C-150.38172211 120.58664993 -151.10398987 120.23312958 -151.84814453 119.86889648 C-152.56463165 119.52044174 -153.28111877 119.171987 -154.01931763 118.81297302 C-156.47000408 117.48507313 -158.09042075 115.95044675 -159.86328125 113.80859375 C-160.41757813 113.16019531 -160.971875 112.51179688 -161.54296875 111.84375 C-165.86311639 105.57369789 -165.56250142 99.11069527 -164.98828125 91.74609375 C-163.63467304 85.46717161 -159.28322047 79.96887021 -154.01953125 76.41796875 C-147.91774236 73.27864258 -141.73462822 72.70212068 -134.98828125 73.74609375 C-130.73073772 75.32880198 -126.91463819 77.48461465 -123.12158203 79.96850586 C-120.99620333 81.00723771 -120.99620333 81.00723771 -118.92724609 79.95776367 C-118.19199707 79.46896729 -117.45674805 78.9801709 -116.69921875 78.4765625 C-115.85367432 77.92621338 -115.00812988 77.37586426 -114.13696289 76.80883789 C-113.22164795 76.19000732 -112.30633301 75.57117676 -111.36328125 74.93359375 C-110.3983374 74.29993896 -109.43339355 73.66628418 -108.43920898 73.01342773 C-106.3595664 71.64610302 -104.28444297 70.27188551 -102.21337891 68.89160156 C-99.00822542 66.75936168 -95.78854443 64.65125657 -92.5625 62.55078125 C-88.20223381 59.71167536 -83.8465737 56.86579954 -79.49609375 54.01171875 C-72.2195685 49.23915502 -64.92857788 44.48889767 -57.63500977 39.74243164 C-56.76030029 39.17258545 -55.88559082 38.60273926 -54.984375 38.015625 C-54.15147949 37.47373535 -53.31858398 36.9318457 -52.46044922 36.37353516 C-49.20631552 34.23132152 -45.9919782 32.03177802 -42.78540039 29.8190918 C-40.98828125 28.74609375 -40.98828125 28.74609375 -38.98828125 28.74609375 C-39.0346875 27.75609375 -39.08109375 26.76609375 -39.12890625 25.74609375 C-39.42057358 17.02258908 -39.29879595 10.54312253 -33.2578125 3.8203125 C-23.89076888 -5.21019063 -11.21054471 -7.0699113 0 0 Z " fill="#0E1207" transform="translate(233.98828125,52.25390625)"/>
<path d="M0 0 C11.39252176 8.85532259 18.80994829 19.87410597 21.1875 34.25 C22.44069613 50.11237299 19.23425425 62.85777927 9.4453125 75.5 C0.49865334 85.32980577 -12.51040981 91.38558803 -25.65234375 92.48828125 C-39.80073404 92.86530708 -52.43545476 88.16849574 -63.25 79 C-73.431696 69.16997442 -78.79477898 57.30450928 -79.05444336 43.1862793 C-79.10920936 28.32477769 -75.0358494 16.54744455 -64.625 5.4375 C-46.28461833 -11.74881004 -20.75562967 -14.19673712 0 0 Z " fill="#D9FC3A" transform="translate(247.8125,170.75)"/>
<path d="M0 0 C2.79214079 1.10216084 4.30312601 1.72137138 6.375 3.9375 C6.95210413 6.94878808 6.83903047 9.92456333 6.765625 12.98046875 C6.75996521 13.8640657 6.75430542 14.74766266 6.74847412 15.65803528 C6.72607867 18.48090743 6.67587727 21.30251138 6.625 24.125 C6.60493906 26.03839313 6.58668758 27.95180615 6.5703125 29.86523438 C6.52620357 34.55647842 6.45715485 39.24677418 6.375 43.9375 C5.77957397 43.98055771 5.18414795 44.02361542 4.57067871 44.06797791 C-26.56696062 46.35265653 -55.86630566 56.04680883 -84.515625 68.14648438 C-86.625 68.9375 -86.625 68.9375 -88.625 68.9375 C-89.51230628 63.47232151 -89.51194583 58.73870969 -86.625 53.9375 C-80.2178687 48.04982917 -72.22790097 43.95408804 -64.68652344 39.69580078 C-60.8485602 37.49157341 -57.20117858 35.07703809 -53.5625 32.5625 C-48.1549987 28.91179983 -42.66087452 25.4205066 -37.11743164 21.98046875 C-31.05229777 18.2151445 -25.02283457 14.3950773 -19 10.5625 C-18.06341553 9.96727539 -17.12683105 9.37205078 -16.16186523 8.75878906 C-15.27055908 8.1912793 -14.37925293 7.62376953 -13.4609375 7.0390625 C-12.62062988 6.50450439 -11.78032227 5.96994629 -10.91455078 5.41918945 C-8.96113791 4.15503262 -7.0486615 2.85037358 -5.140625 1.51953125 C-2.625 -0.0625 -2.625 -0.0625 0 0 Z " fill="#DAFC3B" transform="translate(204.625,92.0625)"/>
<path d="M0 0 C4.25242741 1.48874553 7.75608648 3.71008662 11.4375 6.25 C17.8068101 10.56847576 24.25250033 14.75202258 30.75 18.875 C32.14943848 19.76312378 32.14943848 19.76312378 33.57714844 20.66918945 C36.38358411 22.44800144 39.19144622 24.22453442 42 26 C42.87897949 26.55574707 43.75795898 27.11149414 44.66357422 27.68408203 C48.73040039 30.25458683 52.79842483 32.82318673 56.8671875 35.390625 C66.00142823 41.15571238 66.00142823 41.15571238 69.296875 43.31640625 C71.41019684 44.6326515 73.50432022 45.80795991 75.703125 46.96484375 C85.3170629 52.23094608 85.3170629 52.23094608 87.296875 57.359375 C87.773834 60.61136816 87.95000084 63.71823684 88 67 C88.33 67.99 88.66 68.98 89 70 C84.98607711 68.72902294 81.24823333 67.21854847 77.4375 65.4375 C65.42624074 60.1038764 52.58967274 56.68274182 40 53 C38.58630127 52.58306885 38.58630127 52.58306885 37.14404297 52.15771484 C22.97366882 48.0536971 8.66136181 46.38898933 -6 45 C-6.14855102 39.39505581 -6.25731076 33.79126202 -6.32958984 28.18481445 C-6.35972497 26.27868689 -6.40064197 24.37269758 -6.45263672 22.46704102 C-6.52559975 19.72377413 -6.55948758 16.98234282 -6.5859375 14.23828125 C-6.61690521 13.38913651 -6.64787292 12.53999176 -6.67977905 11.66511536 C-6.68307932 5.8359304 -6.68307932 5.8359304 -4.62432861 3.3164978 C-2.96337891 1.92260742 -2.96337891 1.92260742 0 0 Z " fill="#D9FB3B" transform="translate(233,91)"/>
<path d="M0 0 C32.58250892 7.18801358 66.04614873 20.75012853 94 39 C95.84869579 40.13396777 97.7025588 41.25957284 99.5625 42.375 C100.32691406 42.83648437 101.09132813 43.29796875 101.87890625 43.7734375 C103.88531279 44.93367996 105.91533546 45.98839408 108 47 C104.44827277 48.18390908 101.69848653 48.08682096 97.94921875 48.03759766 C97.2349321 48.02959641 96.52064545 48.02159515 95.78471375 48.01335144 C93.41887886 47.98543715 91.05322648 47.94994503 88.6875 47.9140625 C87.03662543 47.89227748 85.38574639 47.87082863 83.73486328 47.84970093 C80.26801123 47.80416788 76.80123599 47.75496502 73.33447266 47.703125 C68.91783993 47.63731073 64.50114811 47.57983445 60.08436584 47.52509499 C56.66969169 47.48194108 53.25508532 47.43459084 49.84048462 47.38599777 C48.21401594 47.36328098 46.58753017 47.34175285 44.96102905 47.32149124 C36.26994408 47.21056953 27.6453952 46.99382662 19 46 C18.76216797 44.47632813 18.76216797 44.47632813 18.51953125 42.921875 C16.0301316 27.87532669 11.03052047 13.00638366 0 2 C0 1.34 0 0.68 0 0 Z " fill="#D8FA3A" transform="translate(273,162)"/>
<path d="M0 0 C0 3.48633029 -0.47099772 3.86926652 -2.625 6.4375 C-10.65156587 16.84931894 -14.9896234 29.23565069 -16.54760742 42.22753906 C-16.69689697 43.47245117 -16.84618652 44.71736328 -17 46 C-28.40223148 46.76015621 -39.76561981 47.18673091 -51.19140625 47.31640625 C-52.75895121 47.3370602 -54.32649168 47.35805827 -55.89402771 47.37937927 C-59.95604733 47.43373118 -64.01810959 47.48351127 -68.0802002 47.53222656 C-72.25076954 47.58308967 -76.42127942 47.6384321 -80.59179688 47.69335938 C-88.72781384 47.79987272 -96.86388161 47.90153984 -105 48 C-102.19246131 45.7340743 -99.47413163 43.55717869 -96.35546875 41.73828125 C-95.68708984 41.34624512 -95.01871094 40.95420898 -94.33007812 40.55029297 C-93.62302734 40.14182129 -92.91597656 39.73334961 -92.1875 39.3125 C-91.44048828 38.87824707 -90.69347656 38.44399414 -89.92382812 37.99658203 C-88.37423376 37.09809145 -86.82327928 36.20194266 -85.27099609 35.30810547 C-83.81898159 34.47173762 -82.36861627 33.63249583 -80.92041016 32.78955078 C-55.37179469 17.92319608 -28.42793545 7.95666947 0 0 Z " fill="#DAFC3B" transform="translate(163,162)"/>
<path d="M0 0 C4.59937739 1.39311431 8.70625247 3.32615513 12.9375 5.5625 C35.66799928 17.22207423 61.59677834 26.94925036 87.12304688 29.35449219 C92.90582715 29.90582715 92.90582715 29.90582715 94 31 C94.31470751 35.50418218 94.35675744 40.01392545 94.4050293 44.52758789 C94.42660339 46.04572303 94.4607007 47.56373395 94.50756836 49.08129883 C94.57455984 51.26960779 94.60202128 53.45534177 94.62109375 55.64453125 C94.6461499 56.95784424 94.67120605 58.27115723 94.69702148 59.62426758 C94 63 94 63 91.14038086 65.45361328 C88 67 88 67 85.1328125 67.09765625 C80.80586536 65.58160619 77.52920972 63.16466362 73.875 60.4375 C72.34590206 59.32695374 70.8159522 58.21757953 69.28515625 57.109375 C68.54539551 56.56990234 67.80563477 56.03042969 67.04345703 55.47460938 C64.50875579 53.64550597 61.92363066 51.90544914 59.3125 50.1875 C46.04567729 41.42192071 32.86562517 32.48948961 19.94873047 23.21459961 C16.63066053 20.8323852 13.29590126 18.52997525 9.83984375 16.3515625 C0.42811853 10.29985309 0.42811853 10.29985309 -0.86328125 6.37890625 C-0.875 3.875 -0.875 3.875 0 0 Z " fill="#DAFB3B" transform="translate(117,276)"/>
<path d="M0 0 C0.48546178 3.12026643 0.61788649 5.89086132 0 9 C-2.13838286 11.71886662 -4.84079281 13.36095599 -7.75 15.1875 C-8.55622803 15.73011475 -9.36245605 16.27272949 -10.19311523 16.83178711 C-11.90798822 17.98565094 -13.63084436 19.12772463 -15.36083984 20.25878906 C-19.66245392 23.09681973 -23.85326205 26.0900434 -28.0625 29.0625 C-29.75055001 30.24196252 -31.43934687 31.4203569 -33.12890625 32.59765625 C-37.59757166 35.71543206 -42.05141179 38.85366833 -46.5 42 C-52.82528267 46.46982623 -59.15861736 50.92804079 -65.5 55.375 C-66.31275391 55.94605469 -67.12550781 56.51710938 -67.96289062 57.10546875 C-73.25847579 60.81541931 -78.60847863 64.43081285 -84 68 C-86.97 66.35 -89.94 64.7 -93 63 C-93 52.44 -93 41.88 -93 31 C-88.895625 30.278125 -84.79125 29.55625 -80.5625 28.8125 C-57.57407766 24.59873344 -37.2390775 16.63782933 -15.9375 7.125 C-15.11080811 6.75600586 -14.28411621 6.38701172 -13.43237305 6.00683594 C-0.17671738 0 -0.17671738 0 0 0 Z " fill="#DAFB3B" transform="translate(320,276)"/>
<path d="M0 0 C6.31864776 3.65816449 10.21546982 9.12582812 12.5 16 C13.41204168 23.59327728 12.90818636 30.59032513 8.5 37 C3.71878394 42.21042753 -0.80629863 45.6442796 -7.98828125 46.3359375 C-16.82712506 46.42622191 -22.9975272 46.17223777 -29.68359375 39.9765625 C-35.1036112 34.3150113 -37.37505133 29.52062662 -37.9375 21.6875 C-37.748096 15.14749142 -34.93791534 9.66401233 -30.5625 4.8828125 C-21.99652679 -2.93688274 -10.84173806 -4.88618544 0 0 Z " fill="#0E1107" transform="translate(231.5,190)"/>
<path d="M0 0 C0.29390625 1.47146484 0.29390625 1.47146484 0.59375 2.97265625 C4.95731003 23.26663327 15.09248895 38.53273822 32.51171875 50.02734375 C37.34823941 52.89863645 42.52035801 54.86951276 47.78515625 56.80859375 C50.31652353 57.74670678 52.6093536 58.77012614 55 60 C47.58242842 60.29247818 40.75876002 59.49724983 33.5 58 C32.42266602 57.77924805 31.34533203 57.55849609 30.23535156 57.33105469 C5.14637751 51.96780568 -18.31191017 42.8588167 -41 31 C-39.53383493 27.50913078 -37.66719588 25.58281186 -34.8125 23.125 C-31.56607252 20.29321058 -28.3850903 17.43337845 -25.28515625 14.44140625 C-24.63893311 13.82185059 -23.99270996 13.20229492 -23.3269043 12.56396484 C-22.05463271 11.34086548 -20.7888113 10.11100999 -19.53051758 8.87353516 C-13.84243004 3.4441705 -8.21453164 -0.82145316 0 0 Z " fill="#D9FB3A" transform="translate(147,223)"/>
<path d="M0 0 C7.50370557 0.81387033 7.50370557 0.81387033 10.5625 3.3125 C11.22765625 3.85132813 11.8928125 4.39015625 12.578125 4.9453125 C13.37734375 5.62335938 14.1765625 6.30140625 15 7 C16.07802149 7.89335409 17.15615534 8.7865726 18.234375 9.6796875 C25.89134261 16.08467895 33.0694912 22.81490108 40 30 C37.80141899 32.41913376 35.71821782 33.81683589 32.78125 35.234375 C31.94174805 35.64002686 31.10224609 36.04567871 30.23730469 36.46362305 C29.33399414 36.88812744 28.43068359 37.31263184 27.5 37.75 C26.55801758 38.1931958 25.61603516 38.6363916 24.64550781 39.09301758 C0.10446526 50.46002345 -30.59735603 62.1513716 -58 61 C-55.48448077 58.48448077 -53.54839035 58.18589089 -50.125 57.25 C-32.28629646 51.90035572 -16.65074992 40.81717022 -7.60791016 24.22851562 C-3.57955041 16.36371238 -1.31553872 8.77025811 0 0 Z " fill="#D9FB3B" transform="translate(291,223)"/>
<path d="M0 0 C20.13 0 40.26 0 61 0 C58.17386933 2.82613067 55.33504869 4.87164728 52 7 C51.30052246 7.44972168 50.60104492 7.89944336 49.88037109 8.36279297 C47.4875413 9.89535916 45.088235 11.41735081 42.6875 12.9375 C41.88376953 13.44990234 41.08003906 13.96230469 40.25195312 14.49023438 C34.93503245 17.85661939 29.5352117 21.00622153 24 24 C23.20239258 23.18704468 23.20239258 23.18704468 22.38867188 22.35766602 C19.02821261 18.94117014 15.63580113 15.62361486 12 12.5 C7.79790907 8.88153281 3.75000532 5.08910155 0 1 C0 0.67 0 0.34 0 0 Z " fill="#D8FA3A" transform="translate(320,222)"/>
<path d="M0 0 C18.48 0 36.96 0 56 0 C54.1172549 3.7654902 52.58807351 5.64643414 49.6484375 8.546875 C48.79765625 9.39121094 47.946875 10.23554688 47.0703125 11.10546875 C46.18085937 11.97816406 45.29140625 12.85085937 44.375 13.75 C43.02921875 15.08224609 43.02921875 15.08224609 41.65625 16.44140625 C39.44192996 18.63216969 37.22307565 20.81812763 35 23 C26.04276901 18.8960359 17.84008634 14.13822197 9.625 8.6875 C8.67923096 8.06472168 7.73346191 7.44194336 6.7590332 6.80029297 C5.88206787 6.21006348 5.00510254 5.61983398 4.1015625 5.01171875 C3.31088379 4.48022217 2.52020508 3.94872559 1.70556641 3.40112305 C1.14272949 2.93875244 0.57989258 2.47638184 0 2 C0 1.34 0 0.68 0 0 Z " fill="#D8FC39" transform="translate(60,222)"/>
<path d="M0 0 C108.57 0 217.14 0 329 0 C329 0.33 329 0.66 329 1 C327.824375 1.2165625 327.824375 1.2165625 326.625 1.4375 C324.03578982 1.87798925 324.03578982 1.87798925 322 3 C321.030625 2.835 320.06125 2.67 319.0625 2.5 C315.97047565 1.75153105 315.97047565 1.75153105 313 3 C311.33333333 2.66666667 309.66666667 2.33333333 308 2 C306.515 2.495 306.515 2.495 305 3 C302.99890722 2.67329097 300.99883869 2.34022786 299 2 C298.34 2.33 297.68 2.66 297 3 C296.236875 2.835 295.47375 2.67 294.6875 2.5 C291.76169663 1.95566449 289.87810255 2.39408367 287 3 C286.01 2.67 285.02 2.34 284 2 C282.515 2.495 282.515 2.495 281 3 C279.33178677 2.67449498 277.66500443 2.34153937 276 2 C275.34 2.33 274.68 2.66 274 3 C271.6505947 2.39239518 269.31470912 1.72870472 267 1 C266.67 1.66 266.34 2.32 266 3 C265.113125 2.814375 264.22625 2.62875 263.3125 2.4375 C260.14821189 2.01957516 258.05160358 2.19222258 255 3 C254.67 2.34 254.34 1.68 254 1 C252.88625 1.5259375 252.88625 1.5259375 251.75 2.0625 C248.82879218 3.0583663 247.81513699 3.06781058 245 2 C244.01 1.505 244.01 1.505 243 1 C243 1.66 243 2.32 243 3 C241.54178519 3.02792326 240.08339757 3.04679418 238.625 3.0625 C237.81289063 3.07410156 237.00078125 3.08570313 236.1640625 3.09765625 C233.53227059 3.0164281 231.01099147 2.79662938 228.3984375 2.50390625 C222.59295237 1.89431406 216.8327903 1.85253739 211 1.875 C209.44732422 1.86919922 209.44732422 1.86919922 207.86328125 1.86328125 C206.87714844 1.86457031 205.89101563 1.86585938 204.875 1.8671875 C203.54082031 1.86887939 203.54082031 1.86887939 202.1796875 1.87060547 C199.9534776 1.85933437 199.9534776 1.85933437 198 3 C198 2.34 198 1.68 198 1 C195.36 1.66 192.72 2.32 190 3 C190 2.34 190 1.68 190 1 C188.8553125 1.495 188.8553125 1.495 187.6875 2 C185 3 185 3 182 3 C182 2.34 182 1.68 182 1 C180.7625 1.144375 179.525 1.28875 178.25 1.4375 C174.41878236 1.85578167 170.5866191 2.2593816 166.75 2.625 C165.77546875 2.72039062 164.8009375 2.81578125 163.796875 2.9140625 C160.99804759 3.00005999 158.72149642 2.6057668 156 2 C151.14343891 1.84582346 146.78337279 2.04332544 142 3 C142 2.34 142 1.68 142 1 C139.36 1.66 136.72 2.32 134 3 C134 2.34 134 1.68 134 1 C133.37351563 1.08378906 132.74703125 1.16757812 132.1015625 1.25390625 C130.87566406 1.40666016 130.87566406 1.40666016 129.625 1.5625 C128.81289062 1.66691406 128.00078125 1.77132813 127.1640625 1.87890625 C125 2 125 2 123 1 C123 1.66 123 2.32 123 3 C122.34773438 2.9278125 121.69546875 2.855625 121.0234375 2.78125 C112.71005145 1.77177545 112.71005145 1.77177545 104.4375 2.5625 C101.61670564 3.06879642 99.7966298 2.58534112 97 2 C93.14592425 1.79555983 89.70260119 1.7657996 86 3 C85.01 2.34 84.02 1.68 83 1 C82.67 1.66 82.34 2.32 82 3 C80.4221875 2.7215625 80.4221875 2.7215625 78.8125 2.4375 C75.34670804 2.03978617 73.32426259 2.30015524 70 3 C68.32706064 2.69972883 66.66014616 2.36442233 65 2 C61.58009651 1.86320386 59.26046344 1.91317885 56 3 C54.33253222 2.67069757 52.66604338 2.33643476 51 2 C48.2595909 1.90710478 45.55147794 1.86012772 42.8125 1.875 C42.08869141 1.87113281 41.36488281 1.86726563 40.61914062 1.86328125 C36.68083498 1.79545674 36.68083498 1.79545674 33 3 C32.34 2.835 31.68 2.67 31 2.5 C28.0590589 2.00984315 26.05258131 2.17541858 23.125 2.5625 C18.48642464 3.11801801 15.35973734 2.61120728 11 1 C10.67 1.66 10.34 2.32 10 3 C10 2.34 10 1.68 10 1 C6.7 1 3.4 1 0 1 C0 0.67 0 0.34 0 0 Z " fill="#B3DE39" transform="translate(53,427)"/>
<path d="M0 0 C0.66 0.99 1.32 1.98 2 3 C-1.71165339 7.73555777 -1.71165339 7.73555777 -3.5078125 9.3828125 C-5.30000716 11.32513864 -6.08950928 13.10835742 -7.0625 15.5625 C-7.38347656 16.34753906 -7.70445312 17.13257812 -8.03515625 17.94140625 C-10.81173853 26.74328449 -11.28453373 35.16185749 -11.24050903 44.35098267 C-11.24221788 45.66626367 -11.24392673 46.98154467 -11.24568737 48.33668268 C-11.25013254 51.96263765 -11.24219648 55.58847316 -11.23213124 59.21441293 C-11.22345796 63.13383731 -11.22641964 67.05325548 -11.22793579 70.97268677 C-11.2289822 77.75513925 -11.22273119 84.53755311 -11.21146011 91.31999588 C-11.19517488 101.12614684 -11.18999402 110.93227921 -11.18748413 120.73844223 C-11.18311177 136.65002023 -11.16981512 152.56157768 -11.15087891 168.47314453 C-11.13250823 183.92561745 -11.11835754 199.37808477 -11.10986328 214.83056641 C-11.10933783 215.78377776 -11.10881239 216.73698911 -11.10827102 217.71908565 C-11.10566086 222.50128207 -11.10313346 227.28347853 -11.10064721 232.06567502 C-11.079929 271.7104644 -11.04471597 311.35523084 -11 351 C-13.21172335 347.68241497 -13.26396815 346.61328385 -13.31587219 342.74397278 C-13.33513826 341.63958422 -13.35440434 340.53519566 -13.37425423 339.39734077 C-13.38521566 338.17027349 -13.3961771 336.94320621 -13.4074707 335.67895508 C-13.426378 334.36589323 -13.4452853 333.05283138 -13.46476555 331.69997978 C-13.51675065 327.99528456 -13.55483252 324.29055608 -13.58989882 320.58566642 C-13.61349156 318.18563658 -13.64060487 315.78567077 -13.668787 313.38569069 C-14.23566796 264.7331556 -14.1874994 216.07459653 -14.18511212 167.41951859 C-14.18546252 156.88454556 -14.19715668 146.34960527 -14.2110464 135.81464261 C-14.22415847 125.49103738 -14.2294857 115.16744674 -14.22884732 104.84383327 C-14.22859516 98.74706047 -14.23129372 92.65032828 -14.24202538 86.55356407 C-14.25177973 80.86697833 -14.25173597 75.18047185 -14.24450874 69.49388313 C-14.24347485 67.43050392 -14.24575322 65.3671195 -14.2518692 63.30374908 C-14.28038418 53.0093579 -14.05551304 42.8109591 -13.12153625 32.55403137 C-13.00759593 31.27067682 -13.00759593 31.27067682 -12.89135379 29.96139592 C-11.70930467 18.3175411 -7.20768722 9.20174478 0 0 Z " fill="#96C73B" transform="translate(14,28)"/>
<path d="M0 0 C18.48 0 36.96 0 56 0 C54.1172549 3.7654902 52.58807351 5.64643414 49.6484375 8.546875 C48.79765625 9.39121094 47.946875 10.23554688 47.0703125 11.10546875 C46.18085937 11.97816406 45.29140625 12.85085937 44.375 13.75 C43.02921875 15.08224609 43.02921875 15.08224609 41.65625 16.44140625 C39.44192996 18.63216969 37.22307565 20.81812763 35 23 C31.7 21.35 28.4 19.7 25 18 C26.32 17.67 27.64 17.34 29 17 C29 17.66 29 18.32 29 19 C30.98 19.33 32.96 19.66 35 20 C40.61 14.39 46.22 8.78 52 3 C34.84 2.67 17.68 2.34 0 2 C0 1.34 0 0.68 0 0 Z " fill="#D0DA3D" transform="translate(60,222)"/>
<path d="M0 0 C20.13 0 40.26 0 61 0 C58.36435544 2.63564456 56.27929831 4.31830856 53 6 C52.34 5.67 51.68 5.34 51 5 C51.66 4.34 52.32 3.68 53 3 C52.40531418 3 51.81062836 3 51.19792175 3 C34.7986145 3 18.39930725 3 2 3 C1.34 2.01 0.68 1.02 0 0 Z " fill="#F1FD45" transform="translate(320,222)"/>
<path d="M0 0 C0.33 0.99 0.66 1.98 1 3 C0.505 3.433125 0.01 3.86625 -0.5 4.3125 C-2.33218192 5.99740483 -2.33218192 5.99740483 -2 9 C-5.04080421 9.50579714 -8.08246646 10.00480759 -11.125 10.5 C-11.9809375 10.64308594 -12.836875 10.78617187 -13.71875 10.93359375 C-18.19671505 11.65695734 -22.44563435 12.17918816 -27 12 C-24.48448077 9.48448077 -22.54839035 9.18589089 -19.125 8.25 C-12.31089672 6.24451141 -6.23493671 3.37023606 0 0 Z " fill="#E7F740" transform="translate(260,272)"/>
<path d="M0 0 C0.33 0.99 0.66 1.98 1 3 C1.66 3 2.32 3 3 3 C3.20625 4.11375 3.4125 5.2275 3.625 6.375 C5.90939381 15.32352197 11.63572372 22.07826816 17.8515625 28.67578125 C20.02789014 31.03017206 22.02510451 33.47552952 24 36 C21.69 35.34 19.38 34.68 17 34 C16.9175 33.401875 16.835 32.80375 16.75 32.1875 C15.77822147 29.35314597 14.51696446 28.5545957 12 27 C11.01 26.67 10.02 26.34 9 26 C9 24.68 9 23.36 9 22 C7.80440725 19.59803308 7.80440725 19.59803308 6.1875 17.1875 C-0.57431324 6.31744562 -0.57431324 6.31744562 0 0 Z " fill="#9BC73B" transform="translate(3,380)"/>
<path d="M0 0 C0.99 0.33 1.98 0.66 3 1 C3 3.31 3 5.62 3 8 C6.63 8 10.26 8 14 8 C14 8.33 14 8.66 14 9 C21.92 9.33 29.84 9.66 38 10 C38 10.33 38 10.66 38 11 C33.07045354 11.09885708 28.14148353 11.17146125 23.21118164 11.21972656 C21.53399608 11.23984565 19.85688069 11.26714451 18.17993164 11.30175781 C15.769518 11.35026569 13.36003128 11.37296464 10.94921875 11.390625 C10.19912033 11.41127014 9.44902191 11.43191528 8.67619324 11.45318604 C3.50504504 11.45541634 3.50504504 11.45541634 1.01489258 9.20996094 C-0.41601698 6.09410978 -0.19493898 3.37894234 0 0 Z " fill="#181E09" transform="translate(289,200)"/>
<path d="M0 0 C2.67393995 2.57554822 4.94827664 5.18493436 7.125 8.1875 C13.69366974 16.70296098 21.58522173 22.891982 31 28 C30.34 28.66 29.68 29.32 29 30 C17.38427309 22.92515062 6.42104882 14.32733002 0 2 C0 1.34 0 0.68 0 0 Z " fill="#EDF644" transform="translate(154,248)"/>
<path d="M0 0 C4.31931387 0.61611835 8.25208775 1.64238578 12.375 3.0625 C13.43460938 3.42472656 14.49421875 3.78695313 15.5859375 4.16015625 C16.38257813 4.43730469 17.17921875 4.71445312 18 5 C18 5.33 18 5.66 18 6 C10.44862068 6.30071865 3.41143564 5.42625566 -4 4 C-2.68 3.34 -1.36 2.68 0 2 C0 1.34 0 0.68 0 0 Z " fill="#E0EE3E" transform="translate(184,277)"/>
<path d="M0 0 C5.77421875 2.43125 5.77421875 2.43125 7.13671875 5.15625 C6.45609375 4.8675 5.77546875 4.57875 5.07421875 4.28125 C-3.37129701 1.04679716 -10.06312209 0.09600882 -18.640625 3.15625 C-22.10769246 4.7161257 -24.88088225 6.80840398 -27.86328125 9.15625 C-23.12247323 -1.97013616 -10.45172585 -3.0799083 0 0 Z " fill="#ECF646" transform="translate(227.86328125,47.84375)"/>
<path d="M0 0 C1.98 0.99 1.98 0.99 4 2 C3.34 4.31 2.68 6.62 2 9 C2.52207031 9.2371875 3.04414062 9.474375 3.58203125 9.71875 C6.77956584 11.41308174 9.71836716 13.44166427 12.6875 15.5 C13.28111328 15.90347656 13.87472656 16.30695313 14.48632812 16.72265625 C18.8789675 19.757935 18.8789675 19.757935 20 22 C15.21311212 20.37338761 11.30822979 17.79637952 7.1875 14.9375 C6.49462891 14.49728516 5.80175781 14.05707031 5.08789062 13.60351562 C0.2248507 10.19699209 0.2248507 10.19699209 -0.44677734 6.62158203 C-0.44898462 4.36795687 -0.32004294 2.22916866 0 0 Z " fill="#EDF545" transform="translate(117,276)"/>
<path d="M0 0 C2.64850284 0.61509762 5.29339905 1.24149408 7.9375 1.875 C8.69224609 2.04902344 9.44699219 2.22304687 10.22460938 2.40234375 C12.16593545 2.87244065 14.08549544 3.4304297 16 4 C16.33 4.66 16.66 5.32 17 6 C13.7 5.67 10.4 5.34 7 5 C7.66 6.32 8.32 7.64 9 9 C9.36784131 10.3242287 9.71202981 11.65613912 10 13 C6.40523299 9.50794062 3.07973809 5.95966325 0 2 C0 1.34 0 0.68 0 0 Z " fill="#E5F041" transform="translate(273,162)"/>
<path d="M0 0 C1.32 0.33 2.64 0.66 4 1 C4 1.99 4 2.98 4 4 C4.54140625 4.26554688 5.0828125 4.53109375 5.640625 4.8046875 C8.37525582 6.19011305 11.06124141 7.65258458 13.75 9.125 C15.22726563 9.93324219 15.22726563 9.93324219 16.734375 10.7578125 C17.48203125 11.16773438 18.2296875 11.57765625 19 12 C16 13 16 13 13.73046875 11.9609375 C8.85995812 8.92341474 4.17644287 5.95663008 0 2 C0 1.34 0 0.68 0 0 Z " fill="#EAF641" transform="translate(183,246)"/>
<path d="M0 0 C6.6 0 13.2 0 20 0 C20 0.33 20 0.66 20 1 C18.824375 1.2165625 18.824375 1.2165625 17.625 1.4375 C15.03578982 1.87798925 15.03578982 1.87798925 13 3 C12.030625 2.835 11.06125 2.67 10.0625 2.5 C6.97047565 1.75153105 6.97047565 1.75153105 4 3 C1.8125 2.0625 1.8125 2.0625 0 1 C0 0.67 0 0.34 0 0 Z " fill="#A7D438" transform="translate(362,427)"/>
<path d="M0 0 C0 0.99 0 1.98 0 3 C-2 5 -2 5 -4.3828125 5.1953125 C-5.28773438 5.17210937 -6.19265625 5.14890625 -7.125 5.125 C-8.49011719 5.09792969 -8.49011719 5.09792969 -9.8828125 5.0703125 C-10.58148438 5.04710937 -11.28015625 5.02390625 -12 5 C-11 3 -11 3 -8.49609375 2.1484375 C-7.48675781 1.89320313 -6.47742188 1.63796875 -5.4375 1.375 C-3.91962891 0.98441406 -3.91962891 0.98441406 -2.37109375 0.5859375 C-1.58863281 0.39257812 -0.80617187 0.19921875 0 0 Z " fill="#E6F143" transform="translate(163,162)"/>
<path d="M0 0 C3.96 0 7.92 0 12 0 C12 0.99 12 1.98 12 3 C8.37 3 4.74 3 1 3 C0.67 2.01 0.34 1.02 0 0 Z " fill="#CFED38" transform="translate(213,260)"/>
<path d="M0 0 C2.475 0.99 2.475 0.99 5 2 C4.59007813 2.47050781 4.18015625 2.94101562 3.7578125 3.42578125 C3.21898438 4.04839844 2.68015625 4.67101562 2.125 5.3125 C1.59132813 5.92738281 1.05765625 6.54226563 0.5078125 7.17578125 C-1.1640447 9.13498212 -1.1640447 9.13498212 -3 12 C-3.66 11.67 -4.32 11.34 -5 11 C-4.175 10.113125 -3.35 9.22625 -2.5 8.3125 C-0.53900524 5.98692593 -0.02740522 5.25212806 0.3125 2.125 C0.209375 1.42375 0.10625 0.7225 0 0 Z " fill="#EDF941" transform="translate(75,254)"/>
<path d="M0 0 C3.68069887 1.53643852 5.98775204 3.78150945 8.75 6.625 C9.54921875 7.44226563 10.3484375 8.25953125 11.171875 9.1015625 C12.07679688 10.04128906 12.07679688 10.04128906 13 11 C10 11 10 11 8.28125 9.5390625 C7.6934375 8.90742188 7.105625 8.27578125 6.5 7.625 C4.36503989 5.34958199 2.62878656 3.75252437 0 2 C0 1.34 0 0.68 0 0 Z " fill="#F3FA48" transform="translate(318,242)"/>
<path d="M0 0 C2.64 0 5.28 0 8 0 C5.63404067 2.61500768 3.13950774 4.38999603 0 6 C-0.66 5.67 -1.32 5.34 -2 5 C-1.01 4.01 -0.02 3.02 1 2 C0.67 1.34 0.34 0.68 0 0 Z " fill="#EAF441" transform="translate(373,222)"/>
<path d="M0 0 C0.99 0 1.98 0 3 0 C3 0.99 3 1.98 3 3 C2.34 3 1.68 3 1 3 C1.33 5.64 1.66 8.28 2 11 C1.01 10.67 0.02 10.34 -1 10 C-0.67 6.7 -0.34 3.4 0 0 Z " fill="#151C07" transform="translate(147,195)"/>
<path d="M0 0 C4 0 4 0 6.5 2.3125 C7.325 3.199375 8.15 4.08625 9 5 C10.31175986 6.02813611 11.6369893 7.04084432 13 8 C7.63951758 7.66496985 3.90710652 4.4126588 0 1 C0 0.67 0 0.34 0 0 Z " fill="#E8F144" transform="translate(191,335)"/>
<path d="M0 0 C0 0.99 0 1.98 0 3 C-0.66 3 -1.32 3 -2 3 C-2.226875 3.639375 -2.45375 4.27875 -2.6875 4.9375 C-4 7 -4 7 -6.625 7.75 C-7.800625 7.87375 -7.800625 7.87375 -9 8 C-6.14723863 5.06799526 -3.34920216 2.35684596 0 0 Z " fill="#E6F542" transform="translate(316,304)"/>
<path d="M0 0 C0 0.66 0 1.32 0 2 C-5.94 2.495 -5.94 2.495 -12 3 C-8.62803192 -0.37196808 -4.5120049 -1.50400163 0 0 Z " fill="#D2DE38" transform="translate(245,281)"/>
<path d="M0 0 C4.875 2.625 4.875 2.625 6 6 C6.99 6.33 7.98 6.66 9 7 C8.67 7.99 8.34 8.98 8 10 C6.66070495 8.71451591 5.32871357 7.42141845 4 6.125 C2.88625 5.04605469 2.88625 5.04605469 1.75 3.9453125 C0 2 0 2 0 0 Z " fill="#151C06" transform="translate(323,244)"/>
<path d="M0 0 C0.66 0.99 1.32 1.98 2 3 C0.71937515 4.7074998 -0.61767557 6.37373596 -2 8 C-2.66 8 -3.32 8 -4 8 C-3.40072174 4.64404172 -2.15377564 2.62198774 0 0 Z " fill="#BBDE3B" transform="translate(14,28)"/>
<path d="M0 0 C0.268125 0.598125 0.53625 1.19625 0.8125 1.8125 C1.98493467 3.97224808 3.19369282 5.35790256 5 7 C4.67 7.99 4.34 8.98 4 10 C2.99406757 8.8803014 1.9954151 7.7540588 1 6.625 C0.443125 5.99851562 -0.11375 5.37203125 -0.6875 4.7265625 C-2 3 -2 3 -2 1 C-1.34 0.67 -0.68 0.34 0 0 Z " fill="#E9F640" transform="translate(360,255)"/>
<path d="M0 0 C-2.64 1.65 -5.28 3.3 -8 5 C-8.33 4.01 -8.66 3.02 -9 2 C-3.375 -1.125 -3.375 -1.125 0 0 Z " fill="#151D06" transform="translate(396,232)"/>
<path d="M0 0 C2.64 0 5.28 0 8 0 C7.34 1.32 6.68 2.64 6 4 C1.125 2.25 1.125 2.25 0 0 Z " fill="#E3F83C" transform="translate(62,224)"/>
<path d="M0 0 C0.33 0.99 0.66 1.98 1 3 C1.66 3 2.32 3 3 3 C3.33 4.65 3.66 6.3 4 8 C3.01 8 2.02 8 1 8 C0.67 5.36 0.34 2.72 0 0 Z " fill="#B2D638" transform="translate(3,380)"/>
<path d="M0 0 C0.66 0 1.32 0 2 0 C3.37432457 3.81756824 2.67975039 7.07255329 2 11 C1.67 11 1.34 11 1 11 C0.67 7.37 0.34 3.74 0 0 Z " fill="#1A1D0A" transform="translate(195,355)"/>
<path d="M0 0 C0.66 0 1.32 0 2 0 C2 2.97 2 5.94 2 9 C1.34 8.67 0.68 8.34 0 8 C-0.6875 4.5 -0.6875 4.5 -1 1 C-0.67 0.67 -0.34 0.34 0 0 Z " fill="#EEF842" transform="translate(318,276)"/>
<path d="M0 0 C0.66 0 1.32 0 2 0 C2 0.99 2 1.98 2 3 C3.98 3.66 5.96 4.32 8 5 C5 6 5 6 1.8125 4.5625 C0.884375 4.046875 -0.04375 3.53125 -1 3 C-0.67 2.01 -0.34 1.02 0 0 Z " fill="#ECF544" transform="translate(107,251)"/>
<path d="M0 0 C0 0.66 0 1.32 0 2 C-2.31 2.33 -4.62 2.66 -7 3 C-6.67 2.01 -6.34 1.02 -6 0 C-3.50907189 -1.24546405 -2.58919267 -0.7767578 0 0 Z " fill="#191D07" transform="translate(146,221)"/>
<path d="M0 0 C0.33 0 0.66 0 1 0 C1 3.3 1 6.6 1 10 C0.01 10 -0.98 10 -2 10 C-1.34 6.7 -0.68 3.4 0 0 Z " fill="#D5F03A" transform="translate(194,70)"/>
<path d="M0 0 C0.66 0.33 1.32 0.66 2 1 C1.67 1.99 1.34 2.98 1 4 C0.01 3.67 -0.98 3.34 -2 3 C-2 2.34 -2 1.68 -2 1 C-1.34 0.67 -0.68 0.34 0 0 Z " fill="#CDF148" transform="translate(5,393)"/>
<path d="M0 0 C0.33 0.66 0.66 1.32 1 2 C1.66 2.33 2.32 2.66 3 3 C2.34 3.99 1.68 4.98 1 6 C0.67 4.02 0.34 2.04 0 0 Z " fill="#CEF249" transform="translate(432,39)"/>
<path d="M0 0 C2 3 2 3 2 5 C1.34 5 0.68 5 0 5 C0 3.35 0 1.7 0 0 Z " fill="#CEF048" transform="translate(3,388)"/>
<path d="M0 0 C1.32 0.99 2.64 1.98 4 3 C3.01 3 2.02 3 1 3 C0.67 2.01 0.34 1.02 0 0 Z " fill="#D0F249" transform="translate(423,26)"/>
<path d="M0 0 C1.32 0.33 2.64 0.66 4 1 C2.68 1.33 1.36 1.66 0 2 C0 1.34 0 0.68 0 0 Z " fill="#D3F247" transform="translate(35,7)"/>
<path d="M0 0 C4 1 4 1 4 1 Z " fill="#D5FA47" transform="translate(287,1)"/>
<path d="M0 0 C3 1 3 1 3 1 Z " fill="#CCEF46" transform="translate(382,429)"/>
<path d="M0 0 C3 1 3 1 3 1 Z " fill="#CDF047" transform="translate(54,429)"/>
<path d="M0 0 C3 1 3 1 3 1 Z " fill="#CBEE46" transform="translate(387,428)"/>
<path d="M0 0 C0.99 0.495 0.99 0.495 2 1 C1.01 1.495 1.01 1.495 0 2 C0 1.34 0 0.68 0 0 Z " fill="#CAED4A" transform="translate(40,426)"/>
<path d="M0 0 C3 1 3 1 3 1 Z " fill="#CCED49" transform="translate(393,426)"/>
<path d="M0 0 C0.99 0.495 0.99 0.495 2 1 C1.01 1.495 1.01 1.495 0 2 C0 1.34 0 0.68 0 0 Z " fill="#C9EC4C" transform="translate(36,426)"/>
<path d="" fill="#CFF14E" transform="translate(0,0)"/>
<path d="" fill="#CFF047" transform="translate(0,0)"/>
<path d="M0 0 C0.99 0.495 0.99 0.495 2 1 C1.01 1.495 1.01 1.495 0 2 C0 1.34 0 0.68 0 0 Z " fill="#D0F449" transform="translate(13,25)"/>
<path d="M0 0 C0.66 0.66 1.32 1.32 2 2 C1.34 2 0.68 2 0 2 C0 1.34 0 0.68 0 0 Z " fill="#CEEE47" transform="translate(400,7)"/>
<path d="M0 0 C3 1 3 1 3 1 Z " fill="#D6F947" transform="translate(280,1)"/>
<path d="M0 0 C2 1 2 1 2 1 Z " fill="#CEF146" transform="translate(379,429)"/>
<path d="M0 0 C2 1 2 1 2 1 Z " fill="#CAF04A" transform="translate(51,429)"/>
<path d="M0 0 C2 1 2 1 2 1 Z " fill="#C6E84C" transform="translate(399,428)"/>
<path d="" fill="#CBEB4C" transform="translate(0,0)"/>
<path d="M0 0 C2 1 2 1 2 1 Z " fill="#CDEF47" transform="translate(391,427)"/>
<path d="M0 0 C2 1 2 1 2 1 Z " fill="#CBED4B" transform="translate(396,425)"/>
<path d="M0 0 C2 1 2 1 2 1 Z " fill="#CCEC4B" transform="translate(38,425)"/>
<path d="M0 0 C2 1 2 1 2 1 Z " fill="#CBEC47" transform="translate(32,422)"/>
<path d="" fill="#CCF147" transform="translate(0,0)"/>
<path d="" fill="#CCF249" transform="translate(0,0)"/>
<path d="" fill="#D1F047" transform="translate(0,0)"/>
<path d="M0 0 C2 1 2 1 2 1 Z " fill="#CDEE49" transform="translate(425,25)"/>
<path d="M0 0 C2 1 2 1 2 1 Z " fill="#D1F446" transform="translate(19,19)"/>
<path d="M0 0 C2 1 2 1 2 1 Z " fill="#CFF447" transform="translate(20,15)"/>
<path d="M0 0 C2 1 2 1 2 1 Z " fill="#D1F348" transform="translate(52,2)"/>
<path d="M0 0 C2 1 2 1 2 1 Z " fill="#D4F645" transform="translate(361,1)"/>
<path d="M0 0 C2 1 2 1 2 1 Z " fill="#D5FA44" transform="translate(297,1)"/>
<path d="M0 0 C2 1 2 1 2 1 Z " fill="#D4F744" transform="translate(153,1)"/>
<path d="M0 0 C2 1 2 1 2 1 Z " fill="#D5F845" transform="translate(129,1)"/>
<path d="" fill="#CBEC47" transform="translate(0,0)"/>
<path d="" fill="#D4F648" transform="translate(0,0)"/>
<path d="" fill="#D5F749" transform="translate(0,0)"/>
<path d="" fill="#D4F647" transform="translate(0,0)"/>
<path d="" fill="#D3F647" transform="translate(0,0)"/>
<path d="" fill="#D4F748" transform="translate(0,0)"/>
<path d="" fill="#D4F646" transform="translate(0,0)"/>
<path d="" fill="#D3F548" transform="translate(0,0)"/>
<path d="" fill="#D2F646" transform="translate(0,0)"/>
<path d="" fill="#D0F54A" transform="translate(0,0)"/>
<path d="" fill="#CCEE47" transform="translate(0,0)"/>
<path d="" fill="#C9EB4B" transform="translate(0,0)"/>
<path d="" fill="#CCF246" transform="translate(0,0)"/>
<path d="" fill="#C9E94C" transform="translate(0,0)"/>
<path d="" fill="#CAEA4C" transform="translate(0,0)"/>
<path d="" fill="#BCDF51" transform="translate(0,0)"/>
<path d="" fill="#CBEE46" transform="translate(0,0)"/>
<path d="" fill="#CAED48" transform="translate(0,0)"/>
<path d="" fill="#CCF149" transform="translate(0,0)"/>
<path d="" fill="#CCF148" transform="translate(0,0)"/>
<path d="" fill="#CAEF47" transform="translate(0,0)"/>
<path d="" fill="#CCEF45" transform="translate(0,0)"/>
<path d="" fill="#CBE94B" transform="translate(0,0)"/>
<path d="" fill="#CDF046" transform="translate(0,0)"/>
<path d="" fill="#C3E84E" transform="translate(0,0)"/>
<path d="" fill="#CBED4B" transform="translate(0,0)"/>
<path d="" fill="#CAEC4A" transform="translate(0,0)"/>
<path d="" fill="#C8E94F" transform="translate(0,0)"/>
<path d="" fill="#CAEC48" transform="translate(0,0)"/>
<path d="" fill="#CBED48" transform="translate(0,0)"/>
<path d="" fill="#C9EC46" transform="translate(0,0)"/>
<path d="" fill="#CCF149" transform="translate(0,0)"/>
<path d="" fill="#CDF149" transform="translate(0,0)"/>
<path d="" fill="#CCF049" transform="translate(0,0)"/>
<path d="" fill="#CCEF47" transform="translate(0,0)"/>
<path d="" fill="#CDF14B" transform="translate(0,0)"/>
<path d="" fill="#CEF049" transform="translate(0,0)"/>
<path d="" fill="#D5F348" transform="translate(0,0)"/>
<path d="" fill="#CDF04F" transform="translate(0,0)"/>
<path d="" fill="#CFF050" transform="translate(0,0)"/>
<path d="" fill="#D0F14F" transform="translate(0,0)"/>
<path d="" fill="#CEF04D" transform="translate(0,0)"/>
<path d="" fill="#D0F24F" transform="translate(0,0)"/>
<path d="" fill="#CFF44F" transform="translate(0,0)"/>
<path d="" fill="#D1F54E" transform="translate(0,0)"/>
<path d="" fill="#CFF14D" transform="translate(0,0)"/>
<path d="" fill="#D0F34E" transform="translate(0,0)"/>
<path d="" fill="#D1F24C" transform="translate(0,0)"/>
<path d="" fill="#CFF24E" transform="translate(0,0)"/>
<path d="" fill="#CFF34D" transform="translate(0,0)"/>
<path d="" fill="#D0F44E" transform="translate(0,0)"/>
<path d="" fill="#D0F34E" transform="translate(0,0)"/>
<path d="" fill="#CEF14E" transform="translate(0,0)"/>
<path d="" fill="#D0F14E" transform="translate(0,0)"/>
<path d="" fill="#D0F34F" transform="translate(0,0)"/>
<path d="" fill="#CFF14F" transform="translate(0,0)"/>
<path d="" fill="#D0F14F" transform="translate(0,0)"/>
<path d="" fill="#D1F04E" transform="translate(0,0)"/>
<path d="" fill="#CFF24F" transform="translate(0,0)"/>
<path d="" fill="#D2F34F" transform="translate(0,0)"/>
<path d="" fill="#CFF34E" transform="translate(0,0)"/>
<path d="" fill="#CFF24E" transform="translate(0,0)"/>
<path d="" fill="#D0F34D" transform="translate(0,0)"/>
<path d="" fill="#D1F14E" transform="translate(0,0)"/>
<path d="" fill="#D0F24F" transform="translate(0,0)"/>
<path d="" fill="#D2F44F" transform="translate(0,0)"/>
<path d="" fill="#D1F24D" transform="translate(0,0)"/>
<path d="" fill="#CEF14E" transform="translate(0,0)"/>
<path d="" fill="#D1F34F" transform="translate(0,0)"/>
<path d="" fill="#D3F24E" transform="translate(0,0)"/>
<path d="" fill="#CFF14F" transform="translate(0,0)"/>
<path d="" fill="#CEF24C" transform="translate(0,0)"/>
<path d="" fill="#CFF24E" transform="translate(0,0)"/>
<path d="" fill="#CFF350" transform="translate(0,0)"/>
<path d="" fill="#D1F24D" transform="translate(0,0)"/>
<path d="" fill="#D0F24F" transform="translate(0,0)"/>
<path d="" fill="#D0F34F" transform="translate(0,0)"/>
<path d="" fill="#CFF24F" transform="translate(0,0)"/>
<path d="" fill="#D6F848" transform="translate(0,0)"/>
<path d="" fill="#D6F94A" transform="translate(0,0)"/>
<path d="" fill="#DAF744" transform="translate(0,0)"/>
<path d="" fill="#D0F24C" transform="translate(0,0)"/>
<path d="" fill="#CEF14A" transform="translate(0,0)"/>
<path d="" fill="#CEF24B" transform="translate(0,0)"/>
<path d="" fill="#D0F34C" transform="translate(0,0)"/>
<path d="" fill="#D0F04B" transform="translate(0,0)"/>
<path d="" fill="#CEEE4B" transform="translate(0,0)"/>
<path d="" fill="#CFF14A" transform="translate(0,0)"/>
<path d="" fill="#CDEE49" transform="translate(0,0)"/>
<path d="" fill="#D0F549" transform="translate(0,0)"/>
<path d="" fill="#CDF24B" transform="translate(0,0)"/>
<path d="" fill="#CEF14A" transform="translate(0,0)"/>
<path d="" fill="#CBEC4B" transform="translate(0,0)"/>
<path d="" fill="#D3F148" transform="translate(0,0)"/>
<path d="" fill="#D2F549" transform="translate(0,0)"/>
<path d="" fill="#D3F74A" transform="translate(0,0)"/>
<path d="" fill="#D5F549" transform="translate(0,0)"/>
<path d="" fill="#CAED4D" transform="translate(0,0)"/>
<path d="" fill="#CFF349" transform="translate(0,0)"/>
<path d="" fill="#D3F546" transform="translate(0,0)"/>
<path d="" fill="#CFF449" transform="translate(0,0)"/>
<path d="" fill="#CEF34A" transform="translate(0,0)"/>
<path d="" fill="#D0F349" transform="translate(0,0)"/>
<path d="" fill="#D7F547" transform="translate(0,0)"/>
<path d="" fill="#D1F249" transform="translate(0,0)"/>
<path d="" fill="#D0F348" transform="translate(0,0)"/>
<path d="" fill="#CDEF4B" transform="translate(0,0)"/>
<path d="" fill="#D9F546" transform="translate(0,0)"/>
<path d="" fill="#D0F348" transform="translate(0,0)"/>
<path d="" fill="#D2F046" transform="translate(0,0)"/>
<path d="" fill="#CEF249" transform="translate(0,0)"/>
<path d="" fill="#CFF14A" transform="translate(0,0)"/>
<path d="" fill="#CFF046" transform="translate(0,0)"/>
<path d="" fill="#C7EC4E" transform="translate(0,0)"/>
<path d="" fill="#D0F34A" transform="translate(0,0)"/>
<path d="" fill="#D0F046" transform="translate(0,0)"/>
<path d="" fill="#CCF048" transform="translate(0,0)"/>
<path d="" fill="#CFF446" transform="translate(0,0)"/>
<path d="" fill="#D2F747" transform="translate(0,0)"/>
<path d="" fill="#CAF146" transform="translate(0,0)"/>
<path d="" fill="#CDF246" transform="translate(0,0)"/>
<path d="" fill="#CDF148" transform="translate(0,0)"/>
<path d="" fill="#D1F448" transform="translate(0,0)"/>
<path d="" fill="#D4F546" transform="translate(0,0)"/>
<path d="" fill="#D3F845" transform="translate(0,0)"/>
<path d="" fill="#D4F644" transform="translate(0,0)"/>
<path d="" fill="#D2F844" transform="translate(0,0)"/>
<path d="" fill="#D3F746" transform="translate(0,0)"/>
<path d="" fill="#D3F745" transform="translate(0,0)"/>
<path d="" fill="#D5F943" transform="translate(0,0)"/>
<path d="" fill="#D5F845" transform="translate(0,0)"/>
<path d="" fill="#D6F845" transform="translate(0,0)"/>
<path d="" fill="#D3F744" transform="translate(0,0)"/>
<path d="" fill="#D6F946" transform="translate(0,0)"/>
<path d="" fill="#D4F945" transform="translate(0,0)"/>
<path d="" fill="#D4F847" transform="translate(0,0)"/>
<path d="" fill="#D6F845" transform="translate(0,0)"/>
<path d="" fill="#D4FA43" transform="translate(0,0)"/>
<path d="" fill="#D1F645" transform="translate(0,0)"/>
<path d="" fill="#D1F347" transform="translate(0,0)"/>
<path d="" fill="#D0F346" transform="translate(0,0)"/>
</svg>
